<svg id="Layer_1" data-name="Layer 1" xmlns="http://www.w3.org/2000/svg" viewBox="0 0 126 25"><defs><style>.cls-1{fill:#fff;}</style></defs><title>logo-crazyfly</title><path class="cls-1" d="M22.08,5.66,20.7,9H13.32l-2.93,7.18h7.39l-1.35,3.32h-12L10.1,5.66Zm15.15,0-3.5,8.57H29.92l2.5,5.24h-5.2l-2.5-5.24h0l-2.14,5.24H18L23.61,5.66ZM31.32,9h-4.5L26,10.91h4.49L31.32,9ZM52.64,5.66,47,19.47h-4.6l2.16-5.24h-4.5l-2.14,5.24H33.36L39,5.66ZM46.73,9h-4.5l-.81,1.94h4.5L46.73,9ZM67.8,5.66,66.68,8.43,56.52,16.15h7l-1.35,3.32H48.53l1.14-2.75L59.81,9h-7l1.37-3.31ZM83,5.66l-3.51,8.57H74.94L72.8,19.47H68.22l2.13-5.24H65.82l3.51-8.57h4.56l-2.15,5.25h4.5l2.15-5.25Zm15.41,0L97,9H88l-.81,1.94h8.24l-1.34,3.32H85.81l-2.15,5.24H79.09L84.74,5.66Zm9.13,10.49-1.35,3.32h-12L99.82,5.66h4.56l-4.27,10.49ZM122.63,5.66l-3.51,8.57h-4.51l-2.15,5.24h-4.57L110,14.23h-4.52L109,5.66h4.56l-2.14,5.25h4.5l2.14-5.25Z"/></svg>